# xmcd CD database file
#
# Track frame offsets:
#	150
#	18960
#	37027
#	54525
#	65892
#	85582
#	104592
#	122065
#	141340
#	159797
#	176887
#	194510
#	212852
#	229182
#	247807
#	265785
#	286890
#	305035
#	319490
#	337732
#
# Disc length: 4736 seconds
#
# Revision: 2
# Processed by: cddbd v1.5.2PL0 Copyright (c) Steve Scherf et al.
# Submitted via: CDex 1.70beta2
#
DISCID=29127e14
DTITLE=Various Artist - Jazz Ever! Ballads disc1
DYEAR=2005
DGENRE=Jazz
TTITLE0=When I Fall in Lave/McCOY TYNER
TTITLE1=Lazy Afternoon/PETE LA ROCA feat.JOE HENDERSON
TTITLE2=All The Way/LEE MORGAN
TTITLE3=I'm Glad There is You/JOHNNY HARTMAN
TTITLE4=Body and Soul/ART PEPPER
TTITLE5=I Remember Clifford/MILT JACKSON
TTITLE6='Round Midnight/CLAUDE WILLIAMSON
TTITLE7=Easy Living/BILL PERKINS~JOHN LEWIS
TTITLE8=In a Sentimental Mood/SARAH VAUGHAN
TTITLE9=A Ghost of a Chance/DIZZY REECE
TTITLE10=My Silent Love/THE THREE SOUNDS
TTITLE11=Sophisticated Lady/CLIFF JORDAN
TTITLE12=Witchcraft/MARK MURPHY
TTITLE13=I Got it Bad and That Ain't Good/DONALD BYRD
TTITLE14=These Foolish Things/JOHNNY GRIFFIN
TTITLE15=Everything Happens to Me/KENNY DREW
TTITLE16=My One and Only Love/GRANT GREEN
TTITLE17=That Old Feeling/DINAH SHORE
TTITLE18=But Beautiful/FREDDIE HUBBARD
TTITLE19=Deep in a Dream/SONNY CLARK
EXTD=YEAR: 2005
EXTT0=
EXTT1=
EXTT2=
EXTT3=
EXTT4=
EXTT5=
EXTT6=
EXTT7=
EXTT8=
EXTT9=
EXTT10=
EXTT11=
EXTT12=
EXTT13=
EXTT14=
EXTT15=
EXTT16=
EXTT17=
EXTT18=
EXTT19=
PLAYORDER=
